#!OML:ASF Y:\EmotionMaleHayes\Project 1\Capture day 1\Session 1\Male1.ASF
:FULLY-SPECIFIED
:DEGREES
34
root -28.0971 17.0565 0.514145 28.2446 86.5518 27.3278
lowerback 1.97558 1.3712 -3.56631
upperback -0.869842 1.72748 -0.287803
thorax -2.0981 0.910078 1.6357
lowerneck -22.2134 1.7644 4.43197
upperneck 21.5504 1.54559 -1.96145
head 10.6569 0.867256 -1.19359
rclavicle 1.33248e-015 3.37934e-015
rhumerus -35.6749 8.48673 -91.6115
rradius 30.2287
rwrist 5.81171
rhand -9.58443 -31.4394
rfingers 7.12502
rthumb 16.3838 -60.7675
lclavicle 1.33248e-015 3.37934e-015
lhumerus -32.415 -9.98285 92.4889
lradius 23.1667
lwrist -16.1688
lhand -11.1125 -25.4462
lfingers 7.12502
lthumb 14.9122 3.99709
rfemur 9.46449 -4.50676 13.1411
rtibia 0.891074
rfoot -15.5657 -2.01677
rtoes 6.48759
lfemur 11.788 -1.78652 -15.7745
ltibia -3.59141
lfoot -10.7435 13.3657
ltoes -13.2823
35
root -28.0967 17.0603 0.513504 28.7303 86.5741 27.8503
lowerback 2.01027 1.3563 -3.56596
upperback -0.836403 1.70659 -0.300502
thorax -2.08162 0.898853 1.62299
lowerneck -22.2928 1.76198 4.36574
upperneck 21.5919 1.52871 -1.83733
head 10.6847 0.86967 -1.14035
rclavicle -3.55638e-016 -9.0447e-015
rhumerus -35.6087 8.5009 -91.6035
rradius 30.1921
rwrist 5.77438
rhand -9.51612 -31.4818
rfingers 7.12502
rthumb 16.4496 -60.8044
lclavicle -3.55638e-016 -9.0447e-015
lhumerus -32.4323 -9.86351 92.4474
lradius 23.2309
lwrist -16.2696
lhand -11.6392 -25.3383
lfingers 7.12502
lthumb 14.4046 4.14186
rfemur 9.47824 -4.69916 13.0475
rtibia 0.96725
rfoot -15.5615 -1.87533
rtoes 6.32515
lfemur 11.7134 -1.51493 -15.6975
ltibia -3.39008
lfoot -10.737 13.0453
ltoes -13.4009
36
root -28.0957 17.0612 0.51241 30.5654 86.5185 29.6677
lowerback 1.9847 1.35206 -3.65624
upperback -0.832655 1.69923 -0.342711
thorax -2.06445 0.895944 1.63112
lowerneck -22.2624 1.7636 4.24671
upperneck 21.5445 1.52828 -1.66851
head 10.6593 0.880448 -1.05968
rclavicle 1.56803e-014 -9.93923e-017
rhumerus -35.5803 8.48573 -91.5889
rradius 30.1683
rwrist 5.72786
rhand -9.53313 -31.3408
rfingers 7.12502
rthumb 16.4332 -60.6647
lclavicle 1.56803e-014 -9.93923e-017
lhumerus -32.5085 -9.76291 92.4383
lradius 23.3082
lwrist -16.2628
lhand -13.1645 -25.1554
lfingers 7.12502
lthumb 12.9346 4.42374
rfemur 9.43072 -4.80974 12.8486
rtibia 1.04168
rfoot -15.4999 -1.74269
rtoes 6.40714
lfemur 11.658 -1.46867 -15.8502
ltibia -3.33317
lfoot -10.7288 13.0738
ltoes -13.5812
37
root -28.0965 17.0606 0.514331 29.1512 86.5471 28.249
lowerback 2.0141 1.36209 -3.59068
upperback -0.847008 1.71308 -0.316505
thorax -2.09531 0.902726 1.61984
lowerneck -22.2141 1.75882 4.20775
upperneck 21.513 1.52304 -1.61462
head 10.6379 0.881589 -1.03466
rclavicle -7.6567e-015 9.93923e-015
rhumerus -35.6111 8.51717 -91.6202
rradius 30.2001
rwrist 5.52808
rhand -9.7856 -30.8688
rfingers 7.12502
rthumb 16.1901 -60.2127
lclavicle -7.6567e-015 9.93923e-015
lhumerus -32.5014 -9.69158 92.4205
lradius 23.2672
lwrist -16.2893
lhand -11.6625 -25.2532
lfingers 7.12502
lthumb 14.3822 4.22851
rfemur 9.41355 -4.62215 13.0271
rtibia 1.03533
rfoot -15.5041 -1.87614
rtoes 6.51989
lfemur 11.8367 -2.16983 -15.975
ltibia -3.6733
lfoot -10.7921 13.7978
ltoes -12.984
38
root -28.0988 17.0614 0.517349 26.8187 86.6078 25.9095
lowerback 2.02449 1.36417 -3.49636
upperback -0.833767 1.71883 -0.2645
thorax -2.08653 0.904186 1.62023
lowerneck -22.2632 1.77452 4.22354
upperneck 21.574 1.52924 -1.57974
head 10.6696 0.890808 -1.02366
rclavicle -5.79717e-015 6.95746e-016
rhumerus -35.5798 8.48819 -91.6243
rradius 30.1998
rwrist 5.45896
rhand -9.89894 -30.7211
rfingers 7.12502
rthumb 16.081 -60.0739
lclavicle -5.79717e-015 6.95746e-016
lhumerus -32.4211 -9.72669 92.4209
lradius 23.2526
lwrist -16.1858
lhand -11.0863 -25.2486
lfingers 7.12502
lthumb 14.9373 4.19276
rfemur 9.4076 -4.51168 13.2626
rtibia 0.991216
rfoot -15.471 -1.98669
rtoes 6.59708
lfemur 11.925 -2.57497 -15.896
ltibia -3.86088
lfoot -10.8278 14.1753
ltoes -12.386
39
root -28.0982 17.0617 0.517001 27.3185 86.6035 26.4107
lowerback 1.9861 1.35102 -3.54759
upperback -0.80034 1.70239 -0.249501
thorax -2.03171 0.895456 1.66645
lowerneck -22.3549 1.79699 4.14628
upperneck 21.723 1.55875 -1.47489
head 10.7408 0.91288 -0.968299
rclavicle -1.44274e-014 -8.54774e-015
rhumerus -35.5274 8.44112 -91.5513
rradius 30.1643
rwrist 5.67135
rhand -9.62738 -31.0843
rfingers 7.12502
rthumb 16.3424 -60.4157
lclavicle -1.44274e-014 -8.54774e-015
lhumerus -32.432 -9.78309 92.4939
lradius 23.3441
lwrist -15.9785
lhand -11.1842 -25.292
lfingers 7.12502
lthumb 14.8431 4.15638
rfemur 9.4519 -4.48288 13.2393
rtibia 0.914448
rfoot -15.4207 -2.02068
rtoes 6.71247
lfemur 11.875 -2.48055 -15.909
ltibia -3.77434
lfoot -10.8124 14.0734
ltoes -12.0737
40
root -28.0976 17.0625 0.515014 27.0806 86.5758 26.2048
lowerback 2.02731 1.32073 -3.5243
upperback -0.793297 1.66138 -0.218751
thorax -2.04555 0.874911 1.68579
lowerneck -22.3863 1.82245 3.99768
upperneck 21.8187 1.62632 -1.39645
head 10.7818 0.942356 -0.904742
rclavicle -1.14567e-014 -5.36719e-015
rhumerus -35.5523 8.61592 -91.5485
rradius 30.14
rwrist 5.81582
rhand -9.4813 -31.2514
rfingers 7.12502
rthumb 16.4831 -60.5712
lclavicle -1.14567e-014 -5.36719e-015
lhumerus -32.4787 -9.59858 92.5022
lradius 23.3851
lwrist -16.0016
lhand -11.3273 -25.3622
lfingers 7.12502
lthumb 14.7052 4.0963
rfemur 9.4981 -4.36953 13.2703
rtibia 0.87992
rfoot -15.4678 -2.14087
rtoes 6.73656
lfemur 11.8765 -2.38821 -15.9135
ltibia -3.69888
lfoot -10.8297 14.0328
ltoes -12.2107
41
root -28.0973 17.0643 0.514126 27.519 86.5263 26.6405
lowerback 2.06131 1.39045 -3.52826
upperback -0.814242 1.75131 -0.303511
thorax -2.08868 0.920411 1.59601
lowerneck -22.4144 1.78087 4.18423
upperneck 21.8118 1.52195 -1.4746
head 10.7839 0.900467 -0.980149
rclavicle 8.1758e-015 4.57205e-015
rhumerus -35.5992 8.37992 -91.5904
rradius 30.1254
rwrist 5.84361
rhand -9.59054 -31.1918
rfingers 7.12502
rthumb 16.3779 -60.5203
lclavicle 8.1758e-015 4.57205e-015
lhumerus -32.4896 -9.62698 92.4104
lradius 23.3751
lwrist -16.2488
lhand -11.2568 -25.3726
lfingers 7.12502
lthumb 14.7731 4.08094
rfemur 9.47246 -4.48303 13.1648
rtibia 0.921571
rfoot -15.4787 -2.04335
rtoes 6.58334
lfemur 11.9343 -2.50669 -16.023
ltibia -3.80524
lfoot -10.8535 14.2049
ltoes -12.6058
42
root -28.0967 17.0644 0.514812 28.9483 86.5095 28.0395
lowerback 2.04625 1.40733 -3.62136
upperback -0.8289 1.77133 -0.329994
thorax -2.09853 0.931944 1.62016
lowerneck -22.413 1.76926 4.16183
upperneck 21.7768 1.50451 -1.44415
head 10.7697 0.893944 -0.968105
rclavicle 8.10125e-015 1.98785e-015
rhumerus -35.6067 8.3433 -91.5809
rradius 30.1265
rwrist 5.77452
rhand -9.6448 -31.3092
rfingers 7.12502
rthumb 16.3257 -60.642
lclavicle 8.10125e-015 1.98785e-015
lhumerus -32.518 -9.33443 92.3248
lradius 23.3966
lwrist -16.6097
lhand -11.169 -25.3716
lfingers 7.12502
lthumb 14.8577 4.07568
rfemur 9.44527 -4.68357 12.9929
rtibia 0.944036
rfoot -15.4394 -1.87378
rtoes 6.29764
lfemur 11.9305 -2.55158 -16.1253
ltibia -3.86904
lfoot -10.8106 14.183
ltoes -12.4593
43
root -28.0972 17.0634 0.516708 26.6344 86.6134 25.7145
lowerback 2.03572 1.4259 -3.44562
upperback -0.814455 1.8021 -0.288061
thorax -2.07511 0.944497 1.56421
lowerneck -22.4931 1.78405 3.97385
upperneck 21.9132 1.53233 -1.22574
head 10.8324 0.920445 -0.853267
rclavicle 6.07225e-016 -2.28602e-015
rhumerus -35.5381 8.29328 -91.5441
rradius 30.0758
rwrist 5.74514
rhand -9.64187 -31.4299
rfingers 7.12502
rthumb 16.3285 -60.7625
lclavicle 6.07225e-016 -2.28602e-015
lhumerus -32.5521 -9.41491 92.3723
lradius 23.4394
lwrist -16.4933
lhand -11.2398 -25.3961
lfingers 7.12502
lthumb 14.7895 4.05616
rfemur 9.43857 -4.65793 13.2315
rtibia 0.933092
rfoot -15.4639 -1.89565
rtoes 6.4539
lfemur 11.7793 -2.05026 -15.7078
ltibia -3.5944
lfoot -10.7225 13.6195
ltoes -12.751
44
root -28.0974 17.0628 0.517165 25.0354 86.6675 24.1218
lowerback 2.03853 1.44443 -3.31397
upperback -0.789464 1.83075 -0.286316
thorax -2.04823 0.95629 1.49157
lowerneck -22.4106 1.763 4.05418
upperneck 21.8062 1.49119 -1.27997
head 10.7776 0.900479 -0.892919
rclavicle 6.91359e-015 -5.96354e-015
rhumerus -35.5007 8.20588 -91.5327
rradius 30.0553
rwrist 5.67791
rhand -9.64657 -31.2202
rfingers 7.12502
rthumb 16.324 -60.5532
lclavicle 6.91359e-015 -5.96354e-015
lhumerus -32.5572 -9.69628 92.43
lradius 23.487
lwrist -16.2171
lhand -11.3998 -25.4714
lfingers 7.12502
lthumb 14.6353 3.99215
rfemur 9.44289 -4.62729 13.3808
rtibia 0.93183
rfoot -15.4845 -1.85947
rtoes 6.59064
lfemur 11.6754 -1.6728 -15.4359
ltibia -3.36109
lfoot -10.7363 13.2517
ltoes -13.5339
45
root -28.0974 17.0631 0.515905 26.4269 86.637 25.5191
lowerback 2.09099 1.44185 -3.38051
upperback -0.798349 1.82259 -0.332246
thorax -2.0871 0.953581 1.4804
lowerneck -22.3895 1.77574 4.10561
upperneck 21.7506 1.49066 -1.2793
head 10.7537 0.903912 -0.901271
rclavicle -2.19362e-016 4.27387e-015
rhumerus -35.5637 8.17312 -91.5512
rradius 30.1234
rwrist 5.6224
rhand -9.63108 -30.9847
rfingers 7.12502
rthumb 16.3389 -60.3164
lclavicle -2.19362e-016 4.27387e-015
lhumerus -32.5667 -9.74797 92.4243
lradius 23.5049
lwrist -16.1623
lhand -11.5828 -25.5668
lfingers 7.12502
lthumb 14.459 3.90946
rfemur 9.44739 -4.69 13.2448
rtibia 0.944839
rfoot -15.4702 -1.76542
rtoes 6.29208
lfemur 11.7833 -2.0981 -15.704
ltibia -3.56793
lfoot -10.8306 13.6432
ltoes -13.5794
46
root -28.0969 17.0626 0.514991 27.364 86.6062 26.4563
lowerback 2.12475 1.43939 -3.43371
upperback -0.808628 1.81586 -0.361079
thorax -2.11709 0.951389 1.47974
lowerneck -22.3987 1.79859 4.17938
upperneck 21.7282 1.51171 -1.33992
head 10.749 0.911479 -0.932048
rclavicle 5.78029e-015 4.87022e-015
rhumerus -35.5898 8.12936 -91.5623
rradius 30.118
rwrist 5.72833
rhand -9.69819 -30.9767
rfingers 7.12502
rthumb 16.2743 -60.3138
lclavicle 5.78029e-015 4.87022e-015
lhumerus -32.565 -9.74018 92.4164
lradius 23.4862
lwrist -16.1369
lhand -11.6395 -25.571
lfingers 7.12502
lthumb 14.4044 3.90916
rfemur 9.45684 -4.70033 13.1599
rtibia 0.933103
rfoot -15.4442 -1.79732
rtoes 6.41296
lfemur 11.9247 -2.59626 -15.9683
ltibia -3.84035
lfoot -10.8939 14.0997
ltoes -12.8934
